<svg xmlns="http://www.w3.org/2000/svg" viewBox="0 0 128 128" role="img" aria-label="GiftWalmart logo">
  <defs>
    <linearGradient id="giftGrad" x1="0" x2="1" y1="0" y2="1">
      <stop offset="0%" stop-color="#00E5A0"/>
      <stop offset="100%" stop-color="#00B8FF"/>
    </linearGradient>
    <linearGradient id="boxGrad" x1="0" x2="1" y1="0" y2="1">
      <stop offset="0%" stop-color="#FF9A3D"/>
      <stop offset="100%" stop-color="#FF5A36"/>
    </linearGradient>
  </defs>
  <rect width="128" height="128" rx="28" fill="#0b0f18"/>
  <path d="M24 52h80v50a10 10 0 0 1-10 10H34a10 10 0 0 1-10-10V52Z" fill="url(#boxGrad)"/>
  <path d="M20 44a8 8 0 0 1 8-8h72a8 8 0 0 1 8 8v12H20V44Z" fill="#ffb545"/>
  <rect x="58" y="36" width="12" height="76" rx="4" fill="url(#giftGrad)"/>
  <rect x="24" y="52" width="80" height="12" fill="url(#giftGrad)"/>
  <path d="M48 34c-6 0-10-4-10-9s4-9 10-9c6 0 10 6 15 18H48Zm32 0c6 0 10-4 10-9s-4-9-10-9c-6 0-10 6-15 18h15Z" fill="#ff5f56"/>
</svg>